# xmcd CD database file
#
# Track frame offsets:
#	150
#	12813
#	22877
#	35116
#	48925
#	60603
#	70661
#	84200
#	95500
#	108121
#	117215
#	128722
#	141289
#	154200
#	166784
#	179337
#	189813
#	204770
#
# Disc length: 2906 seconds
#
# Revision: 0
# Processed by: cddbd v1.5.2PL0 Copyright (c) Steve Scherf et al.
# Submitted via: CDex 1.51
#
DISCID=d90b5812
DTITLE=Country Legends - Vol 1 of 4
DYEAR=2006
DGENRE=Country
TTITLE0=Folsom Prison Blues - Johnny Cash
TTITLE1=King of the Road - Roger Miller
TTITLE2=Cold Cold Heart - Hank Williams
TTITLE3=Good Year for the Roses - George Jones
TTITLE4=Poor Man's Roses - Patsy Cline
TTITLE5=You're Looking at Country - Loretta Lynn
TTITLE6=Ruby Tuesday - Don Williams
TTITLE7=She Even Woke Me Up to Say Goodbye - Kenny Rogers
TTITLE8=What I've Got in Mind - Billie Jo Spears
TTITLE9=Rawhide - Frankie Laine
TTITLE10=Foolin' Around - Buck Owens
TTITLE11=Beautiful Lady - Jack Greene
TTITLE12=Little Blossom - Dolly Parton
TTITLE13=Making Believe - Kitty Wells
TTITLE14=Help Me Make It Through the Night - Charley Pride
TTITLE15=Funny Familiar Forgotten Feelings - Don Gibson
TTITLE16=Face of a Fighter - Willie Nelson
TTITLE17=DIVORCE - Dottie West
EXTD=YEAR: 2006
EXTT0=
EXTT1=
EXTT2=
EXTT3=
EXTT4=
EXTT5=
EXTT6=
EXTT7=
EXTT8=
EXTT9=
EXTT10=
EXTT11=
EXTT12=
EXTT13=
EXTT14=
EXTT15=
EXTT16=
EXTT17=
PLAYORDER=
